HIERARCHY
ROOT Hips
{
	OFFSET	0.00	0.00	0.00
	CHANNELS 6 Xposition Yposition Zposition Zrotation Xrotation Yrotation
	JOINT LeftUpLeg
	{
		OFFSET	 0.126116	-0.014019	-0.065224
		CHANNELS 3 Zrotation Xrotation Yrotation
		JOINT LeftLeg
		{
			OFFSET	 0.000000	 0.000000	 0.569914
			CHANNELS 3 Zrotation Xrotation Yrotation
			JOINT LeftFoot
			{
				OFFSET	 0.000000	 0.000000	 0.544423
				CHANNELS 3 Zrotation Xrotation Yrotation
				JOINT LeftToeBase
				{
					OFFSET	 0.000000	 0.000000	 0.207117
					CHANNELS 3 Zrotation Xrotation Yrotation
					End Site
					{
						OFFSET	 0.000000	 0.000000	 0.207117
					}
				}
			}
		}
	}
	JOINT RightUpLeg
	{
		OFFSET	-0.124023	-0.008373	-0.065224
		CHANNELS 3 Zrotation Xrotation Yrotation
		JOINT RightLeg
		{
			OFFSET	 0.000000	 0.000000	 0.570047
			CHANNELS 3 Zrotation Xrotation Yrotation
			JOINT RightFoot
			{
				OFFSET	 0.000000	 0.000000	 0.544354
				CHANNELS 3 Zrotation Xrotation Yrotation
				JOINT RightToeBase
				{
					OFFSET	 0.000000	 0.000000	 0.207540
					CHANNELS 3 Zrotation Xrotation Yrotation
					End Site
					{
						OFFSET	 0.000000	 0.000000	 0.207540
					}
				}
			}
		}
	}
	JOINT Spine
	{
		OFFSET	 0.000184	-0.007763	 0.117403
		CHANNELS 3 Zrotation Xrotation Yrotation
		JOINT Spine1
		{
			OFFSET	 0.000000	 0.000000	 0.137269
			CHANNELS 3 Zrotation Xrotation Yrotation
			JOINT Spine2
			{
				OFFSET	 0.000000	 0.000000	 0.156879
				CHANNELS 3 Zrotation Xrotation Yrotation
				JOINT LeftShoulder
				{
					OFFSET	 0.080501	-0.002496	 0.160144
					CHANNELS 3 Zrotation Xrotation Yrotation
					JOINT LeftArm
					{
						OFFSET	 0.000000	 0.000000	 0.164363
						CHANNELS 3 Zrotation Xrotation Yrotation
						JOINT LeftForeArm
						{
							OFFSET	 0.000000	 0.000000	 0.364576
							CHANNELS 3 Zrotation Xrotation Yrotation
							JOINT LeftHand
							{
								OFFSET	 0.000000	 0.000000	 0.360812
								CHANNELS 3 Zrotation Xrotation Yrotation
								JOINT LeftHandIndex1
								{
									OFFSET	 0.000000	 0.000000	 0.086006
									CHANNELS 3 Zrotation Xrotation Yrotation
									JOINT LeftHandIndex2
									{
										OFFSET	 0.000000	 0.000000	 0.047236
										CHANNELS 3 Zrotation Xrotation Yrotation
										JOINT LeftHandIndex3
										{
											OFFSET	-0.004284	-0.000551	 0.038166
											CHANNELS 3 Zrotation Xrotation Yrotation
											End Site
											{
												OFFSET	-0.004284	-0.000551	 0.038166
											}
										}
									}
								}
							}
						}
					}
				}
				JOINT Neck
				{
					OFFSET	 0.000000	 0.000000	 0.176489
					CHANNELS 3 Zrotation Xrotation Yrotation
					JOINT Head
					{
						OFFSET	 0.000000	-0.001747	 0.077940
						CHANNELS 3 Zrotation Xrotation Yrotation
						End Site
						{
							OFFSET	 0.000000	-0.001747	 0.077940
						}
					}
				}
				JOINT RightShoulder
				{
					OFFSET	-0.080363	 0.000306	 0.159706
					CHANNELS 3 Zrotation Xrotation Yrotation
					JOINT RightArm
					{
						OFFSET	 0.000000	 0.000000	 0.164196
						CHANNELS 3 Zrotation Xrotation Yrotation
						JOINT RightForeArm
						{
							OFFSET	 0.000000	 0.000000	 0.365611
							CHANNELS 3 Zrotation Xrotation Yrotation
							JOINT RightHand
							{
								OFFSET	 0.000000	 0.000000	 0.360648
								CHANNELS 3 Zrotation Xrotation Yrotation
								JOINT RightHandIndex1
								{
									OFFSET	 0.000000	 0.000000	 0.069977
									CHANNELS 3 Zrotation Xrotation Yrotation
									JOINT RightHandIndex2
									{
										OFFSET	 0.000000	 0.000000	 0.052305
										CHANNELS 3 Zrotation Xrotation Yrotation
										JOINT RightHandIndex3
										{
											OFFSET	 0.009002	-0.000782	 0.042196
											CHANNELS 3 Zrotation Xrotation Yrotation
											End Site
											{
												OFFSET	 0.009002	-0.000782	 0.042196
											}
										}
									}
								}
							}
						}
					}
				}
			}
		}
	}
}
MOTION
Frames:    11
Frame Time: 0.03333334
 0.011171	 0.047362	 1.195827	 5.064991	-1.390011	-3.661706	 10.205070	-11.274440	-173.442400	 0.967300	-40.387110	 0.398230	 63.229080	 82.405400	-67.179680	-2.369661	 31.570470	-0.068918	-15.521890	-32.452520	-175.050700	 11.128010	-52.416660	 9.469524	 13.600540	 77.581360	-8.894184	 2.358829	 33.021530	 0.103720	 0.437397	 8.862170	 0.709289	 1.938432	 2.760573	 3.467500	-9.482373	-2.172644	-4.290781	-93.947590	 58.949020	 175.370600	 16.870930	 35.086300	-36.882760	-1.771045	-0.045765	-0.746018	 0.968068	-6.551834	-7.449588	-4.870174	 19.241390	-2.790570	-3.878937	 21.505870	 2.200120	-4.806331	 5.568267	 0.145637	-0.073796	-5.077621	 0.185221	-11.402550	 1.855871	 1.999796	 89.777270	 61.650140	 179.988400	-18.661520	 49.933210	 8.687644	-1.110623	-2.277485	 12.412630	-4.925596	 8.237700	 0.564487	 6.292555	 24.744150	-0.539284	 1.900281	 44.580880	-7.006287	 0.547375	 24.183550	 3.557589
 0.009632	 0.010127	 1.187665	 6.063476	-0.501793	-3.675688	 9.741111	-10.965260	-173.912000	 1.431688	-41.719730	 0.718088	 78.398730	 83.485610	-82.666340	-2.367940	 31.854560	-0.075369	-19.244330	-36.406510	-176.716600	 11.833950	-48.425770	 9.486934	 22.268670	 82.854910	-18.840020	 2.359066	 32.985880	 0.102894	-2.009092	 8.417645	 0.530838	 1.789177	 2.166479	 3.587646	-9.436296	-1.685506	-4.152608	-94.192150	 58.994450	 174.843300	 15.319980	 32.292440	-38.069360	-2.801489	-0.027469	-1.063927	 1.732141	-6.988663	-8.378913	-4.861986	 19.451800	-2.804654	-3.865283	 21.680040	 2.186250	-4.803257	 5.604506	 0.143514	-0.022221	-5.117159	 0.255268	-11.226680	 2.172003	 1.910963	 89.683400	 61.817650	 179.763200	-18.194030	 50.814400	 6.759194	-1.265883	-2.355191	 12.998980	-5.118261	 8.950050	 0.206451	 6.268855	 23.026230	-0.559043	 2.101927	 42.889230	-7.185040	 0.911304	 22.561590	 3.377831
 0.008464	-0.029503	 1.179954	 6.461227	 0.229566	-3.994116	 9.749956	-9.790133	-174.190900	 1.645296	-42.157840	 0.867633	 96.964740	 84.065540	-101.318200	-2.365591	 32.233600	-0.084003	-20.972450	-39.142410	-178.078600	 11.775060	-42.732910	 8.578269	 21.366250	 82.517820	-19.054410	 2.361334	 32.646850	 0.095045	-3.935155	 7.928883	 0.718187	 1.619385	 2.095466	 3.561292	-9.240752	-1.419784	-3.988194	-94.364010	 58.985360	 174.478300	 13.507500	 29.606030	-39.293430	-4.172883	-0.001247	-1.348254	 1.671477	-7.640812	-7.863248	-4.846578	 19.801550	-2.818867	-3.848897	 21.888010	 2.169601	-4.793959	 5.713937	 0.137098	-0.005493	-5.182154	 0.313510	-10.998870	 2.432678	 1.952801	 89.559560	 61.957780	 179.463200	-17.699280	 51.503690	 5.576984	-1.900456	-2.265465	 12.225460	-5.557636	 9.637024	-0.693613	 6.239073	 21.303260	-0.619278	 2.255308	 41.526450	-7.319770	 1.301131	 20.773970	 3.194920
 0.006632	-0.076842	 1.169685	 6.631630	 0.668847	-4.308090	 9.848924	-7.770649	-174.731800	 1.795874	-42.393960	 0.973128	 117.418400	 84.248920	-121.711000	-2.358780	 33.262090	-0.107754	-20.945440	-41.008670	-179.020400	 10.835550	-36.006930	 6.876965	 57.006070	 85.466120	-55.560550	 2.352737	 33.885840	 0.123952	-6.206331	 7.504402	 0.987881	 1.403530	 2.395875	 3.322093	-8.823558	-1.220273	-3.673980	-94.470680	 58.962520	 174.254700	 11.229540	 27.083250	-40.542020	-5.548200	 0.034536	-1.679074	 1.279616	-7.827702	-7.310948	-4.825853	 20.215280	-2.822677	-3.825218	 22.186470	 2.145546	-4.771235	 5.980821	 0.121363	 0.022843	-5.277189	 0.342563	-10.558380	 2.691087	 1.959033	 89.447240	 62.046230	 179.190000	-16.782130	 52.031900	 4.765858	-2.795093	-1.877066	 10.073970	-5.877356	 10.140440	-2.164726	 6.196586	 19.082670	-0.708046	 2.530397	 38.903630	-7.558399	 1.769027	 18.561330	 2.989230
 0.003802	-0.122897	 1.156397	 6.921428	 0.749427	-4.525783	 9.778188	-5.550641	-175.520300	 2.074589	-42.905270	 1.172417	 131.956500	 84.290370	-136.198100	-2.340728	 35.639010	-0.164337	-21.055430	-43.810840	-179.902000	 11.272370	-32.921360	 6.606687	 71.869540	 85.205110	-71.484030	 2.336912	 35.890550	 0.172167	-8.928189	 7.657409	 1.179323	 1.157346	 2.179631	 3.157770	-8.209765	-0.968083	-3.366147	-94.539160	 58.906140	 174.118200	 9.065234	 25.461600	-41.406670	-6.369661	 0.076035	-2.031568	 0.921888	-8.658542	-7.538074	-4.840837	 20.471050	-2.984895	-3.795165	 22.562000	 2.115026	-4.732770	 6.430206	 0.094611	 0.093862	-5.380629	 0.354342	-9.877826	 3.030616	 1.789187	 89.366880	 61.985970	 178.997800	-15.517180	 52.267490	 3.542545	-3.507931	-1.472299	 8.335430	-5.796322	 10.035020	-3.625193	 6.166262	 16.693190	-0.701900	 2.823893	 35.826070	-7.808096	 2.255323	 16.187170	 2.792306
-0.000446	-0.164165	 1.142203	 7.170636	 0.688185	-4.316228	 9.504474	-3.580158	-176.757300	 2.616764	-43.627830	 1.562554	 135.134400	 85.324620	-139.299500	-2.299528	 39.870960	-0.272174	-21.234670	-47.278460	 178.833800	 11.207020	-33.049080	 6.592459	 30.181450	 83.222110	-29.326960	 2.337895	 35.774300	 0.169321	-11.585160	 7.762436	 1.117982	 0.946637	 2.185553	 2.837697	-7.550090	-0.772923	-3.034962	-94.526490	 59.136170	 174.106900	 7.365372	 24.617160	-42.249400	-7.080737	 0.121967	-2.364937	 0.377073	-9.735873	-8.122264	-4.869796	 20.577220	-3.184780	-3.770728	 22.864550	 2.090217	-4.688989	 6.938223	 0.063969	 0.162518	-5.462956	 0.295595	-9.091783	 3.356338	 1.711157	 89.356530	 61.732680	 178.982400	-14.515640	 52.284490	 1.752471	-3.859583	-1.444049	 8.530637	-5.765636	 9.625561	-4.705102	 6.180448	 14.601680	-0.498491	 2.982529	 34.030930	-7.940628	 2.666822	 14.121910	 2.639790
-0.006949	-0.216660	 1.125619	 7.473360	 0.339343	-3.465886	 9.406729	-0.789459	-179.121100	 2.210640	-44.006810	 1.291013	 98.935910	 88.261000	-101.802600	-2.176612	 48.078760	-0.518132	-20.011380	-50.177890	 177.825200	 7.985263	-34.468120	 4.974419	 0.618120	 75.837560	 4.913221	 2.340573	 35.453800	 0.161498	-14.779850	 7.872316	 0.442861	 0.651805	 2.512689	 2.555324	-6.719842	-0.580349	-2.776932	-94.461690	 59.350710	 174.210000	 5.904324	 23.825950	-43.083230	-8.118673	 0.187838	-2.752527	-0.221284	-10.229050	-8.357045	-4.891564	 20.701760	-3.351181	-3.755112	 23.056700	 2.074353	-4.632538	 7.587751	 0.024170	 0.250398	-5.476436	 0.245836	-8.074181	 3.753134	 1.997418	 89.353990	 61.450380	 178.986500	-13.571940	 52.098190	 0.318028	-4.037844	-1.280355	 8.387644	-6.102750	 9.064558	-5.498654	 6.260939	 12.236040	-0.020457	 3.118349	 32.414800	-8.052587	 3.081974	 11.989720	 2.499641
-0.012824	-0.272727	 1.112552	 8.356005	-0.352219	-2.585200	 9.714973	 2.854569	 178.073200	 0.099645	-42.850890	-0.172114	 0.045837	 82.980800	 0.359769	-1.992883	 55.443740	-0.806618	-17.326010	-50.413670	 178.457200	 7.157508	-35.509400	 4.617030	-9.994973	 66.239380	 19.952930	 2.335278	 36.081160	 0.176850	-18.122010	 8.174005	-0.270742	 0.121880	 2.793220	 2.153343	-5.977153	-0.347276	-2.506818	-94.403770	 59.123430	 174.371500	 5.124391	 22.869850	-43.443400	-9.212980	 0.259829	-3.112990	-0.419874	-9.402358	-8.074567	-4.895939	 20.882020	-3.436995	-3.737836	 23.268080	 2.056825	-4.578357	 8.205271	-0.014324	 0.348772	-5.425577	 0.278027	-7.122871	 4.221059	 2.375085	 89.243190	 61.411970	 178.726000	-12.878410	 51.531230	 2.221122	-3.709242	 0.128021	 3.126167	-6.436502	 8.525162	-5.089528	 6.328242	 10.271950	 0.316307	 3.275481	 30.449050	-8.180188	 3.377795	 10.442830	 2.408475
-0.020022	-0.337983	 1.100122	 9.797297	-1.050771	-1.505777	 9.448821	 6.386098	 174.758300	 0.728491	-42.770840	 0.255176	-4.168283	 70.311820	 7.452391	-1.332443	 67.901470	-1.635465	-18.708480	-48.855570	 176.764300	 8.724830	-37.882850	 5.856155	-11.015110	 59.160920	 22.514330	 2.343207	 35.129280	 0.153641	-22.017480	 8.375716	-0.834078	-0.906571	 2.840301	 0.998586	-5.195592	 0.039159	-1.825236	-94.296590	 59.202740	 174.588600	 5.065226	 22.430570	-43.286110	-9.904417	 0.347245	-3.517206	-0.052752	-7.905357	-8.330570	-4.845540	 21.165490	-3.234667	-3.696410	 23.770030	 2.014780	-4.527308	 8.781905	-0.050869	 0.398988	-5.350934	 0.261102	-6.106426	 4.796095	 2.566661	 89.077130	 61.068240	 178.353500	-12.190130	 51.005070	 1.648457	-2.313621	 0.221836	 3.532039	-6.143837	 7.991188	-3.835821	 6.360729	 8.863365	 0.467315	 3.374249	 29.158170	-8.259253	 3.595473	 9.291116	 2.346155
-0.027771	-0.400365	 1.095947	 10.377130	-1.371654	-0.448564	 12.818580	 8.167990	 170.124200	 1.728723	-43.381940	 0.945218	-5.461501	 55.282830	 14.893380	-1.211349	 69.216910	-1.773866	-21.479460	-45.886410	 174.063100	 8.193069	-39.271130	 5.693634	-9.362077	 57.075080	 21.855570	 2.360627	 32.754200	 0.097525	-24.820570	 8.442024	-1.251639	-1.843457	 2.445919	-0.200065	-4.372139	 0.459127	-1.150917	-94.157080	 59.684800	 174.815500	 5.541083	 23.079540	-42.675070	-9.690146	 0.431429	-3.893266	 0.697253	-6.868833	-8.813046	-4.789307	 21.357720	-2.961225	-3.647503	 24.353950	 1.965157	-4.489522	 9.205477	-0.078078	 0.370253	-5.356947	 0.200220	-5.202247	 5.176553	 2.622622	 89.003260	 60.494480	 178.215700	-11.794960	 50.590240	-0.029564	-0.537543	-0.136209	 6.545424	-5.376154	 7.072898	-2.601001	 6.387723	 8.768880	 0.575671	 3.387862	 28.976920	-8.270076	 3.667150	 8.909490	 2.326526
-0.036247	-0.470668	 1.094746	 9.476439	-1.782948	 0.624923	 18.881060	 7.362509	 164.415100	 0.709745	-46.924550	 0.260794	-0.592647	 45.578630	 15.713470	-2.240190	 44.383160	-0.400075	-22.517010	-44.597130	 171.852700	 7.332012	-43.923960	 5.631408	-8.000316	 59.297420	 21.512370	 2.371742	 30.949360	 0.056406	-26.301440	 8.771668	-1.783162	-2.394122	 1.556382	-0.893196	-3.268290	 1.022550	-0.766989	-94.062970	 59.805110	 175.002200	 6.074635	 24.107780	-41.381340	-9.432203	 0.533233	-4.291849	 1.090362	-6.305626	-8.561537	-4.747291	 21.706620	-2.818659	-3.594619	 24.975120	 1.911517	-4.441792	 9.736363	-0.112632	 0.296853	-5.396426	 0.175929	-4.279771	 5.304882	 2.748641	 89.059670	 60.265220	 178.357200	-11.832520	 50.230210	 1.049354	 1.288921	 0.443570	 4.311257	-4.469171	 5.938138	-1.379653	 6.404449	 9.750697	 0.637884	 3.318946	 29.886340	-8.215096	 3.598916	 9.272816	 2.345203
